<?xml version="1.0" encoding="utf-8"?>
<!-- Generator: Adobe Illustrator 22.0.1, SVG Export Plug-In . SVG Version: 6.00 Build 0)  -->
<svg version="1.1" id="Layer_1" xmlns="http://www.w3.org/2000/svg" xmlns:xlink="http://www.w3.org/1999/xlink" x="0px" y="0px"
	 viewBox="0 0 506 405" style="enable-background:new 0 0 506 405;" xml:space="preserve">
<style type="text/css">
	.st0{fill:#A67C52;}
	.st1{fill:#A67C52;stroke:#000000;stroke-miterlimit:10;}
	.st2{fill:#42210B;}
	.st3{font-family:'BerlinSansFBDemi-Bold';}
	.st4{font-size:30.6514px;}
</style>
<g>
	<path class="st0" d="M134.7,145.6c-0.9,2,9.8,5.9,18.8,18.8c2.8,4,4.7,7.8,6.3,11c4.1,8.2,6.2,15.2,7,18c2.3,7.9,2.6,12.6,3.1,12.5
		c0.7-0.1,0.6-9.6-0.8-19.6c-1.1-7.8-1.9-13.9-5.5-21.1c-2.3-4.8-5.5-11.2-12.5-15.7C144.1,145,135.5,143.9,134.7,145.6z"/>
	<path class="st0" d="M234.9,142.4c-1.2-2.1-19.1,3.8-34.4,16.4c-6.5,5.4-10.6,10.3-11.7,11.7c-16.3,20.2-18.2,43.8-18.8,53.2
		c-2,30.6,8.8,55.1,10.2,54.8c1.1-0.2-3.9-18-1.6-45.4c1.3-15.3,4.1-24.3,5.5-28.2c1.5-4.4,5.3-14.2,13.3-25.8
		C215,153.8,236.3,144.8,234.9,142.4z"/>
	<path class="st0" d="M245.9,177.7"/>
	<circle class="st0" cx="177.8" cy="165.9" r="7"/>
	<path class="st1" d="M247.8,274.3"/>
	<g>
		<g>
			<path class="st0" d="M240.3,207h1.2c0.5-3.7,0.8-7.5,0.8-11.4c0-15.1-4.2-29.1-11.6-41.1h-2.7c8.2,11.7,13.1,26.1,13.1,41.5
				C241.2,199.8,240.9,203.4,240.3,207z"/>
			<path class="st0" d="M191.1,264.9c-2.1,0.7-4.2,1.3-6.3,1.7v4.8c5.7-1.6,11.1-3.8,16.1-6.5H191.1z"/>
		</g>
		<path class="st0" d="M168.8,123.7c20.2,0,38.5,8.3,51.7,21.7v-4.1C206.1,126.3,186,117,163.7,117c-43.4,0-78.7,35.2-78.7,78.7
			s35.2,78.7,78.7,78.7c2.4,0,4.7-0.1,7-0.3v-5.6c-0.7,0-1.3,0-2,0c-40,0-72.4-32.4-72.4-72.4S128.8,123.7,168.8,123.7z"/>
	</g>
	<path class="st0" d="M238.4,205.8c0,0.7-0.1,1.6-0.4,2.7c-0.2,0.9-0.4,1.8-0.6,2.7c-0.1,1.1-0.3,2.8-0.5,4.9
		c-0.1,0.3-0.3,0.5-0.7,0.5c-0.7,0-1.8,0-3.2,0s-2.5,0-3.3,0c-2,0-4.6,0.2-8,0.6c-0.2,0-0.7,0.1-1.5,0.3c-0.7,0.1-1.2,0.2-1.6,0.2
		c-0.5,0-0.7-0.6-0.7-1.7c0-0.6,0.3-2.2,1-4.9c0.6-2.5,1.1-4.2,1.4-4.9c0.1-0.4,0.4-0.5,0.7-0.5c0.7,0,1.8,0,3.3,0.1
		c1.5,0.1,2.6,0.1,3.3,0.1c1.5,0,4.1-0.3,7.6-0.8c1.9-0.3,2.7-0.4,2.6-0.4C238.2,204.7,238.4,205.1,238.4,205.8z"/>
	<path class="st0" d="M262.8,210.1c0,0.5-0.2,0.8-0.7,0.8c-2,0-3.6-0.1-4.8-0.2c0.1,1.7,0.1,4,0.2,7.1c0,1.3,0.1,3.5,0.3,6.7
		c0.1,2.9,0.2,5.1,0.2,6.7c0,0.5-0.3,0.7-0.8,0.8c-0.6,0.1-2.2,0.1-4.8,0.1c-2.1,0-3.5-0.1-4.1-0.2c-0.6-0.1-1-0.6-1-1.4v-18.6
		c0-0.7-0.4-1-1.1-1c-0.1,0-0.3,0-0.6,0c-0.3,0-0.5,0-0.6,0c-0.5,0-0.8-0.2-0.8-0.5c-0.2-2-0.3-4.8-0.3-8.6c0-0.8,0.4-1.3,1.1-1.5
		c0.6-0.1,1.3-0.1,1.9-0.2c-0.1-1.8-0.1-3.2-0.1-4.2c0-3.9,0.6-6.7,1.9-8.5c2.5-3.5,6.5-5.2,12.1-5.2c0.4,0,0.6,0.1,0.7,0.4
		c0.2,1,0.4,2.5,0.6,4.5c0,0.2,0.1,0.8,0.4,1.9c0.2,0.8,0.3,1.5,0.3,1.9c0,0.5-0.7,0.9-2,1c-1.5,0.2-2.5,0.5-2.9,1
		c-0.6,0.8-0.9,2.4-0.9,4.8c0,0.7,0,1.4,0.1,2.1c0.5,0,1.3,0,2.5-0.1c1.1,0,1.9-0.1,2.5-0.1c0.6,0,0.8,0.2,0.8,0.7
		c0,1.1,0,2.7,0,4.8C262.8,207.4,262.8,209,262.8,210.1z"/>
	<path class="st0" d="M294.9,201.1c0,1.7-0.1,4.2-0.2,7.5c-0.1,3.3-0.2,5.8-0.2,7.5c0,1.6,0,4.1,0.1,7.3c0.1,3.2,0.1,5.7,0.1,7.3
		c0,0.6-0.2,1-0.7,1.1c-0.7,0.2-2.2,0.3-4.5,0.3c-2.1,0-3.5-0.1-4.3-0.2c-0.4-0.1-0.6-0.3-0.7-0.8c-0.1-0.7-0.1-1.4-0.2-2
		c-0.1-1-0.2-1.6-0.4-1.6c0.3,0-0.7,0.8-2.9,2.3c-2.2,1.5-4.1,2.3-5.9,2.3c-5,0-7.9-2.7-8.9-8.1c-0.4-2.5-0.6-6.1-0.6-10.9
		c0-5.1,0.3-9.2,1-12.2c0.2-0.9,0.6-1.4,1.2-1.4c0.9,0,2.2,0,4,0s3.1,0,4,0c0.6,0,0.9,0.3,0.9,0.9c0,0.2,0,0.4-0.1,0.7
		c-0.4,3.1-0.6,6.2-0.6,9.3c0,3.9,0.1,6.6,0.3,8.1c0.3,2.5,1.6,3.7,3.7,3.7c0.8,0,1.7-0.4,2.7-1.3c1-0.9,1.5-1.8,1.5-2.7
		c0-0.8,0.1-6.5,0.1-17c0-0.7,0-1.2,0.1-1.3c0.1-0.2,0.5-0.3,1-0.3c0.9,0,2.3,0,4.2,0c1.9,0,3.2,0,4.2,0c0.6,0,0.9,0.2,1,0.5
		C294.9,200.5,294.9,200.8,294.9,201.1z"/>
	<path class="st0" d="M347.2,224.2c0,0.4-0.2,0.8-0.6,1.4c-3.5,4.9-8.1,7.4-13.8,7.4c-5.9,0-10.6-2.4-14.3-7.2
		c-3.6-4.6-5.3-10.5-5.3-17.6c0-6.9,1.7-12.7,5.2-17.5c3.6-5,8.3-7.5,13.9-7.5c6.1,0,10.9,2.2,14.3,6.7c0.4,0.5,0.6,0.9,0.6,1.3
		c0,0.4-0.7,2-2,4.8c-1.3,2.8-2.1,4.3-2.5,4.6c-0.2,0.2-0.3,0.3-0.6,0.3c-0.1,0-0.6-0.5-1.4-1.4c-1-1.1-2-1.9-3-2.5
		c-1.5-0.9-3-1.4-4.6-1.4c-2.8,0-5,1.2-6.6,3.7c-1.5,2.3-2.3,5.1-2.3,8.5c0,3.4,0.8,6.3,2.3,8.6c1.7,2.5,3.9,3.8,6.6,3.8
		c1.6,0,3.2-0.4,4.7-1.3c1-0.6,1.9-1.4,2.9-2.4c0.8-0.9,1.3-1.3,1.4-1.3c0.2,0,0.4,0.1,0.6,0.4c0.3,0.4,1.1,1.8,2.5,4.2
		C346.5,222.6,347.2,224,347.2,224.2z"/>
	<path class="st0" d="M378.2,207.4l-0.1,23.3c0,0.8-0.3,1.2-0.8,1.3c-0.6,0.1-2,0.1-4.1,0.1c-2.1,0-3.5-0.1-4.3-0.3
		c-0.6-0.1-0.9-0.6-0.9-1.5c0-1.9,0-4.9,0.1-8.8c0.1-3.9,0.1-6.8,0.1-8.8c0-2.6-1.1-4-3.4-4c-0.8,0-1.6,0.4-2.7,1.1
		c-1.1,0.8-1.7,1.6-1.7,2.5v8.4c0,1.1,0,2.7,0.1,4.9c0,2.2,0.1,3.8,0.1,4.9c0,0.8-0.3,1.3-0.9,1.4c-0.6,0.1-2.2,0.1-4.9,0.1
		c-1.5,0-2.7-0.1-3.3-0.3c-0.7-0.2-1-0.6-1-1.2c0-1.8,0-4.5,0-8c0-3.6,0-6.3,0-8c0-7.4-0.1-13.5-0.2-18.3c-0.1-1.7-0.1-3.4-0.1-5.1
		c-0.1-2-0.3-3.6-0.5-5c-0.1-0.3-0.1-0.5-0.1-0.6c0-0.3,0.1-0.6,0.4-0.7c0.6-0.2,1.4-0.3,2.6-0.4c1.5-0.1,2.4-0.1,2.6-0.2l5.1-0.7
		c0.3,0,0.5,0.2,0.5,0.7c0,0.7,0,1.7-0.1,2.9c-0.1,1.4-0.1,2.4-0.1,2.9c-0.1,5.1-0.2,9.1-0.2,12.1c0,0.5,0.1,0.7,0.3,0.7
		c0,0,0.5-0.4,1.4-1.2c1.1-0.9,2.1-1.7,3.1-2.2c1.5-0.8,2.9-1.2,4.3-1.2c2.4,0,4.4,0.8,6,2.3C377.3,202.3,378.2,204.5,378.2,207.4z"
		/>
	<path class="st0" d="M393.2,216.4c0,1.6,0,4.1,0.1,7.4c0.1,3.3,0.1,5.7,0.1,7.3c0,0.5-0.2,0.8-0.7,0.8c-0.6,0.1-2.1,0.2-4.3,0.2
		c-2.3,0-3.7-0.1-4.3-0.2c-0.4-0.1-0.7-0.2-0.8-0.4c0-0.1-0.1-0.4-0.1-1c0-1.6,0-3.9,0.1-7c0.1-3.1,0.1-5.5,0.1-7.1
		c0-6.4-0.2-11.5-0.6-15.3c0-0.4-0.1-0.6-0.1-0.7c0-0.5,0.3-0.7,0.8-0.7c0.5,0,1.3,0.1,2.4,0.2c1.1,0.1,1.9,0.2,2.4,0.2
		c0.5,0,1.4-0.1,2.5-0.2c1.1-0.1,1.9-0.2,2.5-0.2c0.5,0,0.7,0.2,0.7,0.7c0,0.1,0,0.3-0.1,0.6C393.4,205.5,393.2,210.6,393.2,216.4z
		 M394,191.2c0,3.9-1.8,5.9-5.5,5.9c-1.6,0-2.9-0.5-3.9-1.5c-1.1-1.1-1.7-2.5-1.7-4.4c0-1.8,0.6-3.2,1.7-4.3c1.1-1,2.4-1.6,3.9-1.6
		c1.5,0,2.7,0.5,3.8,1.6C393.4,188,394,189.5,394,191.2z"/>
	<path class="st0" d="M427.7,201.1c0,1.7-0.1,4.2-0.2,7.5c-0.1,3.3-0.2,5.8-0.2,7.5c0,1.6,0,4.1,0.1,7.3c0.1,3.2,0.1,5.7,0.1,7.3
		c0,0.6-0.2,1-0.7,1.1c-0.7,0.2-2.2,0.3-4.5,0.3c-2.1,0-3.5-0.1-4.3-0.2c-0.4-0.1-0.6-0.3-0.7-0.8c-0.1-0.7-0.1-1.4-0.2-2
		c-0.1-1-0.2-1.6-0.4-1.6c0.3,0-0.7,0.8-2.9,2.3c-2.2,1.5-4.1,2.3-5.9,2.3c-5,0-7.9-2.7-8.9-8.1c-0.4-2.5-0.6-6.1-0.6-10.9
		c0-5.1,0.3-9.2,1-12.2c0.2-0.9,0.6-1.4,1.2-1.4c0.9,0,2.2,0,4,0s3.1,0,4,0c0.6,0,0.9,0.3,0.9,0.9c0,0.2,0,0.4-0.1,0.7
		c-0.4,3.1-0.6,6.2-0.6,9.3c0,3.9,0.1,6.6,0.3,8.1c0.3,2.5,1.6,3.7,3.7,3.7c0.8,0,1.7-0.4,2.7-1.3c1-0.9,1.5-1.8,1.5-2.7
		c0-0.8,0.1-6.5,0.1-17c0-0.7,0-1.2,0.1-1.3c0.1-0.2,0.5-0.3,1-0.3c0.9,0,2.3,0,4.2,0c1.9,0,3.2,0,4.2,0c0.6,0,0.9,0.2,1,0.5
		C427.7,200.5,427.7,200.8,427.7,201.1z"/>
	<rect x="187.9" y="236.6" class="st0" width="246" height="2.1"/>
	<text transform="matrix(1.1208 0 0 1 194.7373 262.9834)" class="st2 st3 st4">Web Developer</text>
	<polygon class="st0" points="203.9,184 207.2,207.7 210.5,231.3 203.9,231.3 197.4,231.3 200.7,207.7 	"/>
</g>
</svg>
